{
.appVersion = "3086";
.formatVersion = 3;
DisplayStrings = (
WELTRAUM,
"ABCDEFGHIJKLMNOPQRSTUVWXYZ
0123456789_,.:!-///backslash",
"AABACADAEAFAGAHAIAJAK

ALAMANAOAPAQA RASATAU

AVAWAXAYAZA AS A

A-AAAA. A A A: A A!

BABBCBDBEBFBGBHBIBJBK

BLBMBNBOBPBQBRBSBTBU

BVBWBXBYBZB BS B

B-BBBB. B B B: B B!

CACBCCDCECFCGCHCICJCK

CLCMCNCOCPCQCRCSCTCU

CVCWCXCYCZC CS C

C-CCCC. C C C: C C!

DADBDCDDEDFDGDHDIDJDK

DLDMDNDODPDQDRDSDTDU

DVDWDXDYDZD DS DDD

D-DDDD. D D D: D D!

EAEBECEDEEFEGEHEIEJEK

ELEMENEOEPEQERESETEU

EVEWEXEYEZE ES E

E-EEEE. E E E: E E!

FAFBFCFDFEFFGFHFIFJFKJP

FLFMFNFOFPFQFRFSFTFU

FVFWFXFYFZF FS F

F-FFFF. F F F: F F!

GAGBGCGDGEGFGGHGIGJGK

GLGMGNGOGPGQGRGSGTGU

GVGWGXGYGZG GS G

G-GGGG. G G G: G G!

HAHBHCHDHEHFHGHHIHJHK

HLHMHNHOHPHQHRHSHTHU

HVHWHXHYHZH HS H

H-HHHH. H H H: H H!

IAIBICIDIEIFIGIHIIJIK

ILIMINIOIPIQIRISITIUIVIWIXIYIZ

IS II-IIII. I I I: I I!

JAJBJCJDJEJFJGJHJIJJK

JLJMJNJOJPJQJRJSJTJU

JVJWJXJYJZJ JS J

J-JJJJ. J J J: J J!

KAKBKCKDKEKFKGKHKIKJK

KLKMKNKOKPKQKRKSKTKU

KVKWKXKYKZK KS K

K-KKKK. K K K: K K!

LALBLCLDLELFLGLHLILJLK

LLMLNLOLPLQLRLSLTLU

LVLWLXLYLZL LS L

L-LLLL. L L L: LL

L!MAMBMCMDMEMFMGMHMIMJMK

MLMMNMOMPMQMRMSMTMU

MVMWMXMYMZM MS M

M-MMMM. M M M: M M!

NANBNCNDNENFNGNHNINJNK

NLNMNNNONPNQNRNSNTNU

NVNWNXNYNZN NS N

N-NNNN. N N N: N N!

OAOBOCODOEOFOGOHOIOJOK

OLOMONOOPOQOROSOTOU

OVOWOXOYOZO OS O

O-OOOO. O O O: O O!

PAPBPCPDPEPFPGPHPIPJPK

PLPMPNPOPPQPRPSPTPU

PVPWPXPYPZP PS P

P-PPPPP. P P P: P P!

QAQBQCQDQEQFQGQHQIQJQK

QLQMQNQOQPQQRQSQTQU

QVQWQXQYQZQ QS Q

Q-QQQQ. Q Q Q: Q Q!

RARBRCRDRERFRGRHRIRJRK

RLRMRNRORPRQRRSRTRU

RVRWRXRYRZR RS R

R-RRRR. R R R: R R!

SASBSCSDSESFSGSHSISJSK

SLSMSNSOSPSQSRSSTSU

SVSWSXSYSZS SS S

S-SSSS. S S S: S S!

TATBTCTDTETFTGTHTITJTK

TLTMTNTOTPTQTRTSTTU

TVTWTXTYTZT TS T

T-TTTT. T T T: T T!

UAUBUCUDUEUFUGUHUIUJUK

ULUMUNUOUPUQURUSUTUU

UVUWUXUYUZU US U

U-UUUU. U U U: U U!

VAVBVCVDVEVFVGVHVIVJVK

VLVMVNVOVPVQVRVSVTVU

VVWVXVYVZV VS V

V-VVVV. V V V: V V!


glyphs = (
{
glyphname = A;
kernLeft = A;
kernRight = A;
lastChange = "2021-05-31 14:35:17 +0000";
layers = (
{
hints = (
{
horizontal = 1;
place = (600, 120);
place = (600, 120);
type = Stem;
},
{
place = (50, 497);
place = (50, 497);
type = Stem;
}
);
layerId = m01;
shapes = (
{
closed = 1;
nodes = (
(50.12,8.91,ls),
(49.34,3.56,o),
(52.42,0,o),
(57.82,0,cs),
(167.82,0,ls),
(172.62,0,o),
(176.21,3.18,o),
(176.79,7.94,cs),
(248.82,600,l),
(351,600,l),
(423,8,ls),
(423,3,o),
(427,0,o),
(432,0,cs),
(542,0,ls),
(547,0,o),
(550,4,o),
(550,9,cs),
(455,660,ls),
(450,696,o),
(423,720,o),
(386,720,cs),
(214.27,720,ls),
(178,720,o),
(150.33,696.07,o),
(145.1,660.18,cs)
);
}
);
width = 600;
}
);
note = A;
unicode = 65;
},
{
glyphname = B;
kernRight = B;
lastChange = "2021-05-31 13:23:33 +0000";
layers = (
{
hints = (
{
horizontal = 1;
place = (118, 203);
place = (118, 203);
type = Stem;
},
{
horizontal = 1;
place = (439, 163);
place = (439, 163);
type = Stem;
},
{
place = (380, 40);
place = (380, 40);
type = Stem;
}
);
layerId = m01;
shapes = (
{
closed = 1;
nodes = (
(60,712,ls),
(60,717,o),
(63,720,o),
(68,720,cs),
(320,720,ls),
(356,720,o),
(380,696,o),
(380,660,cs),
(380,439,l),
(480,439,ls),
(516,439,o),
(540,415,o),
(540,379,cs),
(540,60,ls),
(540,24,o),
(516,0,o),
(480,0,cs),
(68,0,ls),
(63,0,o),
(60,3,o),
(60,8,cs),
(60,110,ls),
(60,115,o),
(63,118,o),
(68,118,cs),
(420,118,l),
(420,321,l),
(268,321,ls),
(263,321,o),
(260,324,o),
(260,329,cs),
(260,602,l),
(68,602,ls),
(63,602,o),
(60,605,o),
(60,610,cs)
);
}
);
width = 610;
}
);
note = B;
unicode = 66;
},
{
glyphname = C;
kernRight = C;
layers = (
{
hints = (
{
horizontal = 1;
place = (602, 58);
place = (602, 58);
type = Stem;
},
{
place = (70, 440);
place = (70, 440);
type = Stem;
}
);
layerId = m01;
shapes = (
{
closed = 1;
nodes = (
(70,60,l),
(70,660.02,ls),
(70,696.02,o),
(93.99,720.02,o),
(129.98,720.02,cs),
(450,720.02,ls),
(486,720.02,o),
(510,696.02,o),
(510,660.02,cs),
(510,610.02,ls),
(510,605.22,o),
(506.8,602.02,o),
(502,602.02,cs),
(190,602.02,l),
(190,118.02,l),
(502,118.02,ls),
(506.8,118.02,o),
(510,114.82,o),
(510,110.02,cs),
(510,60.02,ls),
(510,24.02,o),
(486,0.02,o),
(450,0.02,cs),
(129.98,0.02,ls),
(93.99,0.02,o),
(70,24.02,o),
(70,60.02,cs)
);
}
);
width = 570;
}
);
note = C;
unicode = 67;
},
{
glyphname = D;
kernRight = D;
lastChange = "2021-05-31 14:36:09 +0000";
layers = (
{
hints = (
{
horizontal = 1;
place = (480, 122);
place = (480, 122);
type = Stem;
},
{
place = (190, 240);
place = (190, 240);
type = Stem;
}
);
layerId = m01;
shapes = (
{
closed = 1;
nodes = (
(71,8,l),
(71,472,ls),
(71,477,o),
(74,480,o),
(79,480,cs),
(178,480,ls),
(183,480,o),
(186,477,o),
(186,472,cs),
(186,113,l),
(426,113,l),
(426,607,l),
(78,607,ls),
(73,607,o),
(70,610,o),
(70,615,cs),
(70,712,ls),
(70,717,o),
(73,720,o),
(78,720,cs),
(481,720,ls),
(517,720,o),
(541,696,o),
(541,660,cs),
(541,60,ls),
(541,24,o),
(517,0,o),
(481,0,cs),
(79,0,ls),
(74,0,o),
(71,3,o),
(71,8,cs)
);
}
);
width = 611;
},
{
associatedMasterId = m01;
hints = (
{
horizontal = 1;
origin = (0,4);
target = (0,12);
type = Stem;
},
{
origin = (0,9);
target = (0,10);
type = Stem;
}
);
layerId = "449C3031-2648-41EC-AC9B-0ED9881428F2";
name = "31. Mai 21, 16:18";
shapes = (
{
closed = 1;
nodes = (
(71,8,l),
(71,472,ls),
(71,477,o),
(74,480,o),
(79,480,cs),
(183,480,ls),
(188,480,o),
(191,477,o),
(191,472,cs),
(191,118,l),
(420,118,l),
(420,602,l),
(78,602,ls),
(73,602,o),
(70,605,o),
(70,610,cs),
(70,712,ls),
(70,717,o),
(73,720,o),
(78,720,cs),
(480,720,ls),
(516,720,o),
(540,696,o),
(540,660,cs),
(540,60,ls),
(540,24,o),
(516,0,o),
(480,0,cs),
(79,0,ls),
(74,0,o),
(71,3,o),
(71,8,cs)
);
}
);
width = 610;
}
);
note = D;
unicode = 68;
},
{
glyphname = E;
lastChange = "2021-05-31 08:37:01 +0000";
layers = (
{
hints = (
{
horizontal = 1;
place = (118, 183);
place = (118, 183);
type = Stem;
},
{
horizontal = 1;
place = (419, 182);
place = (419, 182);
type = Stem;
},
{
place = (70, 440);
place = (70, 440);
type = Stem;
}
);
layerId = m01;
shapes = (
{
closed = 1;
nodes = (
(78,601,ls),
(73.2,601,o),
(70,604.2,o),
(70,609,cs),
(70,659.55,ls),
(70,695.82,o),
(94.18,720,o),
(130.45,720,cs),
(502,720,ls),
(506.8,720,o),
(510,716.8,o),
(510,712,cs),
(510,609,ls),
(510,604.2,o),
(506.8,601,o),
(502,601,cs)
);
},
{
closed = 1;
nodes = (
(70,411,ls),
(70,415.8,o),
(73.2,419,o),
(78,419,cs),
(502,419,ls),
(507,419,o),
(510,415.8,o),
(510,411,cs),
(510,309,ls),
(510,304.2,o),
(506.8,301,o),
(502,301,cs),
(190,301,l),
(190,118,l),
(502,118,ls),
(506.8,118,o),
(510,114.8,o),
(510,110,cs),
(510,8,ls),
(510,3.2,o),
(506.8,0,o),
(502,0,cs),
(130.45,0,ls),
(94.18,0,o),
(70,24.18,o),
(70,60.45,cs)
);
}
);
width = 570;
}
);
note = E;
unicode = 69;
},
{
glyphname = F;
kernRight = F;
lastChange = "2021-05-31 15:11:33 +0000";
layers = (
{
hints = (
{
horizontal = 1;
place = (419, 183);
place = (419, 183);
type = Stem;
},
{
place = (70, 440);
place = (70, 440);
type = Stem;
}
);
layerId = m01;
shapes = (
{
closed = 1;
nodes = (
(78,602,ls),
(73,602,o),
(70,605,o),
(70,610,cs),
(70,660,ls),
(70,696,o),
(94,720,o),
(130,720,cs),
(502,720,ls),
(506.8,720,o),
(510,716.8,o),
(510,712,cs),
(510,610,ls),
(510,605.2,o),
(506.8,602,o),
(502,602,cs)
);
},
{
closed = 1;
nodes = (
(70,411,ls),
(70,415.8,o),
(73.2,419,o),
(78,419,cs),
(382,419,ls),
(386.8,419,o),
(390,415.8,o),
(390,411,cs),
(390,309,ls),
(390,304.2,o),
(386.8,301,o),
(382,301,cs),
(190,301,l),
(190,8,ls),
(190,3.2,o),
(186.8,0,o),
(182,0,cs),
(78,0,ls),
(73.2,0,o),
(70,3.2,o),
(70,8,cs)
);
}
);
width = 570;
}
);
note = F;
unicode = 70;
},
{
glyphname = G;
kernRight = D;
lastChange = "2021-05-31 14:36:16 +0000";
layers = (
{
hints = (
{
horizontal = 1;
origin = (0,6);
target = (0,0);
type = Stem;
},
{
place = (184.5, 239.5);
place = (184.5, 239.5);
type = Stem;
}
);
layerId = m01;
shapes = (
{
closed = 1;
nodes = (
(184,607,l),
(185,113,l),
(424,113,l),
(424,391,ls),
(424,396,o),
(427,399,o),
(432,399,cs),
(479,399,ls),
(515,399,o),
(539,375,o),
(539,339,cs),
(539,60,ls),
(539,24,o),
(515,0,o),
(479,0,cs),
(130.44,0,ls),
(94.17,0,o),
(69.99,24.18,o),
(69.99,60.45,cs),
(69.99,659.55,ls),
(69.99,695.82,o),
(94.17,720,o),
(130.44,720,cs),
(480,720,ls),
(516,720,o),
(540,696,o),
(540,660,cs),
(540,615,ls),
(540,610,o),
(537,607,o),
(532,607,cs)
);
}
);
width = 610;
},
{
associatedMasterId = m01;
hints = (
{
horizontal = 1;
place = (399, 203);
place = (399, 203);
type = Stem;
},
{
place = (190, 240);
place = (190, 240);
type = Stem;
}
);
layerId = "AFE75027-C2AF-486F-9016-963D41DA5901";
name = "31. Mai 21, 16:16";
shapes = (
{
closed = 1;
nodes = (
(189.14,602,l),
(189.99,118,l),
(429.99,118,l),
(429.99,391,ls),
(429.99,395.8,o),
(433.19,399,o),
(437.99,399,cs),
(489.54,399,ls),
(525.81,399,o),
(549.99,374.82,o),
(549.99,338.55,cs),
(549.99,60.45,ls),
(549.99,24.18,o),
(525.81,0,o),
(489.54,0,cs),
(130.44,0,ls),
(94.17,0,o),
(69.99,24.18,o),
(69.99,60.45,cs),
(69.99,659.55,ls),
(69.99,695.82,o),
(94.17,720,o),
(130.44,720,cs),
(490.54,720,ls),
(526.81,720,o),
(550.99,695.82,o),
(550.99,659.55,cs),
(550.99,610,ls),
(550.99,605.2,o),
(547.79,602,o),
(543,602,cs)
);
}
);
width = 620;
}
);
note = G;
unicode = 71;
},
{
glyphname = H;
kernLeft = H;
kernRight = D;
lastChange = "2021-05-31 11:49:39 +0000";
layers = (
{
hints = (
{
horizontal = 1;
place = (0, 720);
place = (0, 720);
type = Stem;
},
{
place = (60, 480);
place = (60, 480);
type = Stem;
}
);
layerId = m01;
shapes = (
{
closed = 1;
nodes = (
(532,720,ls),
(536.8,720,o),
(540,716.8,o),
(540,712,cs),
(540,8,ls),
(540,3.2,o),
(536.8,0,o),
(532,0,cs),
(428,0,ls),
(423.2,0,o),
(420,3.2,o),
(420,8,cs),
(420,301,l),
(68,301,ls),
(63.2,301,o),
(60,304.2,o),
(60,309,cs),
(60,411,ls),
(60,415.8,o),
(63.2,419,o),
(68,419,cs),
(420,419,l),
(420,712,ls),
(420,716.8,o),
(423.2,720,o),
(428,720,cs)
);
}
);
width = 610;
}
);
note = H;
unicode = 72;
},
{
glyphname = I;
kernRight = D;
layers = (
{
hints = (
{
horizontal = 1;
place = (0, 720);
place = (0, 720);
type = Stem;
},
{
place = (70, 120);
place = (70, 120);
type = Stem;
}
);
layerId = m01;
shapes = (
{
closed = 1;
nodes = (
(182,720,ls),
(186.8,720,o),
(190,716.8,o),
(190,712,cs),
(190,8,ls),
(190,3.2,o),
(186.8,0,o),
(182,0,cs),
(78,0,ls),
(73.2,0,o),
(70,3.2,o),
(70,8,cs),
(70,712,ls),
(70,716.8,o),
(73.2,720,o),
(78,720,cs)
);
}
);
width = 260;
}
);
note = I;
unicode = 73;
},
{
glyphname = J;
kernLeft = J;
kernRight = D;
layers = (
{
hints = (
{
horizontal = 1;
place = (0, 720);
place = (0, 720);
type = Stem;
},
{
place = (60, 400);
place = (60, 400);
type = Stem;
}
);
layerId = m01;
shapes = (
{
closed = 1;
nodes = (
(120,0,ls),
(84,0,o),
(60,24,o),
(60,60,cs),
(60,110,ls),
(60,114.8,o),
(63.2,118,o),
(68,118,cs),
(340,118,l),
(340,712,ls),
(340,716.8,o),
(343.2,720,o),
(348,720,cs),
(452,720,ls),
(456.8,720,o),
(460,716.8,o),
(460,712,cs),
(460,60.45,ls),
(460,24.18,o),
(435.82,0,o),
(399.55,0,cs)
);
}
);
width = 530;
}
);
note = J;
unicode = 74;
},
{
glyphname = K;
kernLeft = K;
lastChange = "2021-05-31 11:30:05 +0000";
layers = (
{
hints = (
{
horizontal = 1;
place = (0, 720);
place = (0, 720);
type = Stem;
},
{
place = (50, 401);
place = (50, 401);
type = Stem;
}
);
layerId = m01;
shapes = (
{
closed = 1;
nodes = (
(66.39,310.99,ls),
(45.16,340.4,o),
(45.16,379.6,o),
(66.39,409.01,cs),
(286.32,713.51,ls),
(289.13,717.41,o),
(294.2,720,o),
(299,720,cs),
(451,720,l),
(177,360,l),
(451,0,l),
(299,0,ls),
(294.2,0,o),
(289.13,2.59,o),
(286.32,6.49,cs)
);
}
);
width = 491;
}
);
note = K;
unicode = 75;
},
{
glyphname = L;
kernRight = L;
layers = (
{
hints = (
{
horizontal = 1;
place = (0, 118);
place = (0, 118);
type = Stem;
},
{
place = (70, 120);
place = (70, 120);
type = Stem;
}
);
layerId = m01;
shapes = (
{
closed = 1;
nodes = (
(462,0,ls),
(466.8,0,o),
(470,3.2,o),
(470,8,cs),
(470,110,ls),
(470,114.8,o),
(466.8,118,o),
(462,118,cs),
(190,118,l),
(190,712,ls),
(190,716.8,o),
(186.8,720,o),
(182,720,cs),
(78,720,ls),
(73.2,720,o),
(70,716.8,o),
(70,712,cs),
(70,60.45,ls),
(70,24.18,o),
(94.18,0,o),
(130.45,0,cs)
);
}
);
width = 530;
}
);
note = L;
unicode = 76;
},
{
glyphname = M;
kernRight = D;
layers = (
{
hints = (
{
horizontal = 1;
place = (602, 58);
place = (602, 58);
type = Stem;
},
{
place = (70, 600);
place = (70, 600);
type = Stem;
}
);
layerId = m01;
shapes = (
{
closed = 1;
nodes = (
(70,712,ls),
(70,716.8,o),
(73.2,720,o),
(78,720,cs),
(609.55,720,ls),
(645.82,720,o),
(670,695.82,o),
(670,659.55,cs),
(670,8,ls),
(670,3.2,o),
(666.8,0,o),
(662,0,cs),
(558,0,ls),
(553.2,0,o),
(550,3.2,o),
(550,8,cs),
(550,602,l),
(190,602,l),
(190,8,ls),
(190,3.2,o),
(186.8,0,o),
(182,0,cs),
(78,0,ls),
(73.2,0,o),
(70,3.2,o),
(70,8,cs)
);
}
);
width = 740;
}
);
note = M;
unicode = 77;
},
{
glyphname = N;
kernRight = D;
lastChange = "2021-05-31 14:36:12 +0000";
layers = (
{
hints = (
{
horizontal = 1;
origin = (0,22);
target = (0,3);
type = Stem;
},
{
origin = (0,18);
target = (0,15);
type = Stem;
}
);
layerId = m01;
shapes = (
{
closed = 1;
nodes = (
(70,712,ls),
(70,716.8,o),
(73.2,720,o),
(78,720,cs),
(480,720,ls),
(516,720,o),
(540,696,o),
(540,660,cs),
(540,8,ls),
(540,3,o),
(537,0,o),
(532,0,cs),
(428,0,ls),
(423,0,o),
(420,3,o),
(420,8,cs),
(420,602,l),
(190,602,l),
(190,8,ls),
(190,3.2,o),
(186.8,0,o),
(182,0,cs),
(80,0,ls),
(74,0,o),
(70,4,o),
(70,10,cs)
);
}
);
width = 610;
}
);
note = N;
unicode = 78;
},
{
glyphname = O;
kernRight = D;
lastChange = "2021-05-31 14:36:06 +0000";
layers = (
{
hints = (
{
horizontal = 1;
origin = (0,3);
target = (1,0);
type = Stem;
},
{
horizontal = 1;
origin = (0,12);
target = (1,1);
type = Stem;
},
{
origin = (0,0);
target = (1,0);
type = Stem;
},
{
origin = (1,3);
target = (0,7);
type = Stem;
}
);
layerId = m01;
shapes = (
{
closed = 1;
nodes = (
(70,60.45,ls),
(70,24.18,o),
(94.18,0,o),
(130.45,0,cs),
(479.55,0,ls),
(515.82,0,o),
(540,24.18,o),
(540,60.45,cs),
(540,659.55,ls),
(540,695.82,o),
(515.82,720,o),
(479.55,720,cs),
(130.45,720,ls),
(94.18,720,o),
(70,695.82,o),
(70,659.55,cs)
);
},
{
closed = 1;
nodes = (
(182,110,l),
(182,610,l),
(428,610,l),
(428,110,l)
);
}
);
width = 610;
}
);
note = O;
unicode = 79;
},
{
glyphname = P;
kernRight = P;
lastChange = "2021-05-31 08:37:18 +0000";
layers = (
{
hints = (
{
horizontal = 1;
place = (281, 118);
place = (281, 118);
type = Stem;
},
{
horizontal = 1;
place = (602, 118);
place = (602, 118);
type = Stem;
},
{
place = (70, 130);
place = (70, 130);
type = Stem;
},
{
place = (380, 120);
place = (380, 120);
type = Stem;
}
);
layerId = m01;
shapes = (
{
closed = 1;
nodes = (
(70,8,ls),
(70,3.2,o),
(73.2,0,o),
(78,0,cs),
(192,0,ls),
(196.8,0,o),
(200,3.2,o),
(200,8,cs),
(200,281,l),
(440,281,ls),
(476,281,o),
(500,305,o),
(500,341,cs),
(500,660,ls),
(500,696,o),
(476,720,o),
(440,720,cs),
(78,720,ls),
(73.2,720,o),
(70,716.8,o),
(70,712,cs),
(70,610,ls),
(70,605.2,o),
(73.2,602,o),
(78,602,cs),
(380,602,l),
(380,399,l),
(78,399,ls),
(73.2,399,o),
(70,395.8,o),
(70,391,cs)
);
}
);
width = 570;
}
);
note = P;
unicode = 80;
},
{
glyphname = Q;
lastChange = "2021-05-31 14:21:30 +0000";
layers = (
{
hints = (
{
horizontal = 1;
place = (118, 120);
place = (118, 120);
type = Stem;
},
{
place = (190, 230);
place = (190, 230);
type = Stem;
}
);
layerId = m01;
shapes = (
{
closed = 1;
nodes = (
(130.45,0,ls),
(94.18,0,o),
(70,24.18,o),
(70,60.45,cs),
(70,659.55,ls),
(70,695.82,o),
(94.18,720,o),
(130.45,720,cs),
(479.55,720,ls),
(515.82,720,o),
(540,695.82,o),
(540,659.55,cs),
(540,246,ls),
(540,241.2,o),
(536.8,238,o),
(532,238,cs),
(433,238,ls),
(428,238,o),
(425,241,o),
(425,246,cs),
(425,607,l),
(185,607,l),
(185,113,l),
(572,113,ls),
(577,113,o),
(580,110,o),
(580,105,cs),
(580,8,ls),
(580,3.2,o),
(576.8,0,o),
(572,0,cs)
);
}
);
width = 640;
}
);
note = Q;
unicode = 81;
},
{
glyphname = R;
kernLeft = R;
kernRight = R;
lastChange = "2021-05-31 14:06:17 +0000";
layers = (
{
associatedMasterId = m01;
hints = (
{
horizontal = 1;
place = (301, 118);
place = (301, 118);
type = Stem;
},
{
horizontal = 1;
place = (602, 118);
place = (602, 118);
type = Stem;
},
{
place = (370, 120);
place = (370, 120);
type = Stem;
}
);
layerId = "DEBBB936-22ED-41D2-8C3C-AEB63739E2FB";
name = "31. Mai 21, 16:06";
shapes = (
{
closed = 1;
nodes = (
(430,301,ls),
(466,301,o),
(490,325,o),
(490,361,cs),
(490,660,ls),
(490,696,o),
(466,720,o),
(430,720,cs),
(68,720,ls),
(63.2,720,o),
(60,716.8,o),
(60,712,cs),
(60,610,ls),
(60,605.2,o),
(63.2,602,o),
(68,602,cs),
(370,602,l),
(370,419,l),
(68,419,ls),
(63.2,419,o),
(60,415.8,o),
(60,411,cs),
(60,301,l),
(273,6,ls),
(275,3,o),
(281,0,o),
(286,0,cs),
(438,0,l),
(209,301,l)
);
}
);
width = 560;
},
{
hints = (
{
horizontal = 1;
place = (301, 118);
place = (301, 118);
type = Stem;
},
{
horizontal = 1;
place = (602, 118);
place = (602, 118);
type = Stem;
},
{
place = (370, 120);
place = (370, 120);
type = Stem;
}
);
layerId = m01;
name = Regular;
shapes = (
{
closed = 1;
nodes = (
(60,301,l),
(164,8,ls),
(166,3,o),
(170,0,o),
(175,0,cs),
(297,0,l),
(190,301,l),
(430,301,ls),
(466,301,o),
(490,325,o),
(490,361,cs),
(490,660,ls),
(490,696,o),
(466,720,o),
(430,720,cs),
(68,720,ls),
(63.2,720,o),
(60,716.8,o),
(60,712,cs),
(60,610,ls),
(60,605.2,o),
(63.2,602,o),
(68,602,cs),
(370,602,l),
(370,419,l),
(68,419,ls),
(63.2,419,o),
(60,415.8,o),
(60,411,cs)
);
}
);
width = 560;
}
);
note = R;
unicode = 82;
},
{
glyphname = S;
kernRight = D;
layers = (
{
hints = (
{
horizontal = 1;
place = (118, 202);
place = (118, 202);
type = Stem;
},
{
horizontal = 1;
place = (399, 203);
place = (399, 203);
type = Stem;
},
{
place = (190, 170);
place = (190, 170);
type = Stem;
}
);
layerId = m01;
shapes = (
{
closed = 1;
nodes = (
(419.55,399,ls),
(455.82,399,o),
(480,374.82,o),
(480,338.55,cs),
(480,59.99,ls),
(480,23.99,o),
(456,-0.01,o),
(420,-0.01,cs),
(120,-0.01,ls),
(84,-0.01,o),
(60,23.99,o),
(60,59.99,cs),
(60,109.99,ls),
(60,114.79,o),
(63.2,117.99,o),
(68,117.99,cs),
(360,117.99,l),
(360,390.99,ls),
(360,395.79,o),
(363.2,398.99,o),
(368,398.99,cs)
);
},
{
closed = 1;
nodes = (
(70,660,ls),
(70,696,o),
(94,720,o),
(130,720,cs),
(420,720,ls),
(456,720,o),
(480,696,o),
(480,660,cs),
(480,610,ls),
(480,605.2,o),
(476.8,602,o),
(472,602,cs),
(190,602,l),
(190,328,ls),
(190,323.2,o),
(186.8,320,o),
(182,320,cs),
(130.45,320,ls),
(94.18,320,o),
(70,344.18,o),
(70,380.45,cs)
);
}
);
width = 550;
}
);
note = S;
unicode = 83;
},
{
glyphname = T;
kernLeft = T;
kernRight = T;
lastChange = "2021-05-31 15:19:40 +0000";
layers = (
{
hints = (
{
horizontal = 1;
place = (597, 123);
place = (597, 123);
type = Stem;
},
{
place = (60, 160);
place = (60, 160);
type = Stem;
},
{
place = (340, 160);
place = (340, 160);
type = Stem;
}
);
layerId = m01;
shapes = (
{
closed = 1;
nodes = (
(60,605,ls),
(60,600,o),
(63,597,o),
(68,597,cs),
(491,597,ls),
(496.4,597,o),
(500,600.6,o),
(500,606,cs),
(500,712,ls),
(500,716.8,o),
(496.8,720,o),
(492,720,cs),
(69,720,ls),
(64,720,o),
(60,716,o),
(60,711,cs)
);
},
{
closed = 1;
nodes = (
(220,467,ls),
(220,471.8,o),
(223.2,475,o),
(228,475,cs),
(332,475,ls),
(336.8,475,o),
(340,471.8,o),
(340,467,cs),
(340,9,ls),
(340,3.6,o),
(336.4,0,o),
(331,0,cs),
(228,0,ls),
(223.2,0,o),
(220,3.2,o),
(220,8,cs)
);
}
);
width = 560;
}
);
note = T;
unicode = 84;
},
{
glyphname = U;
kernRight = D;
lastChange = "2021-05-31 14:36:14 +0000";
layers = (
{
hints = (
{
horizontal = 1;
origin = (0,7);
target = (0,21);
type = Stem;
},
{
origin = (0,4);
target = (0,21);
type = Stem;
},
{
origin = (0,20);
target = (0,11);
type = Stem;
}
);
layerId = m01;
shapes = (
{
closed = 1;
nodes = (
(78,720,ls),
(73.2,720,o),
(70,716.8,o),
(70,712,cs),
(70,60.45,ls),
(70,24.18,o),
(94.18,0,o),
(130.45,0,cs),
(480,0,ls),
(516,0,o),
(540,24,o),
(540,60,cs),
(540,712,ls),
(540,717,o),
(537,720,o),
(532,720,cs),
(428,720,ls),
(423,720,o),
(420,717,o),
(420,712,cs),
(420,118,l),
(190,118,l),
(190,712,ls),
(190,716.8,o),
(186.8,720,o),
(182,720,cs)
);
}
);
width = 610;
}
);
note = U;
unicode = 85;
},
{
glyphname = V;
kernLeft = V;
kernRight = V;
lastChange = "2021-05-31 14:35:34 +0000";
layers = (
{
hints = (
{
horizontal = 1;
place = (0, 118);
place = (0, 118);
type = Stem;
},
{
place = (50, 497);
place = (50, 497);
type = Stem;
}
);
layerId = m01;
shapes = (
{
closed = 1;
nodes = (
(57.82,720,ls),
(52.42,720,o),
(49.34,716.44,o),
(50.12,711.09,cs),
(145.1,59.82,ls),
(150.33,23.93,o),
(178,0,o),
(214.27,0,cs),
(386,0,ls),
(423,0,o),
(450,24,o),
(455,60,cs),
(550,711,ls),
(550,716,o),
(547,720,o),
(542,720,cs),
(432,720,ls),
(427,720,o),
(423,717,o),
(423,712,cs),
(351,118,l),
(248.82,118,l),
(176.78,712.06,ls),
(176.21,716.82,o),
(172.62,720,o),
(167.82,720,cs)
);
}
);
width = 600;
}
);
note = V;
unicode = 86;
},
{
glyphname = W;
kernLeft = V;
kernRight = V;
lastChange = "2021-05-31 14:35:43 +0000";
layers = (
{
hints = (
{
horizontal = 1;
place = (0, 118);
place = (0, 118);
type = Stem;
},
{
place = (50, 637);
place = (50, 637);
type = Stem;
}
);
layerId = m01;
shapes = (
{
closed = 1;
nodes = (
(57.82,720,ls),
(52.42,720,o),
(49.34,716.44,o),
(50.12,711.09,cs),
(145.1,59.82,ls),
(150.33,23.93,o),
(178,0,o),
(214.27,0,cs),
(526,0,ls),
(563,0,o),
(590,24,o),
(595,60,cs),
(690,711,ls),
(690,716,o),
(687,720,o),
(682,720,cs),
(572,720,ls),
(567,720,o),
(563,717,o),
(563,712,cs),
(491,118,l),
(248.82,118,l),
(176.78,712.06,ls),
(176.21,716.82,o),
(172.62,720,o),
(167.82,720,cs)
);
}
);
width = 740;
}
);
note = W;
unicode = 87;
},
{
glyphname = X;
kernLeft = X;
kernRight = X;
lastChange = "2021-05-31 14:23:04 +0000";
layers = (
{
hints = (
{
horizontal = 1;
place = (0, 720);
place = (0, 720);
type = Stem;
},
{
place = (292, 42);
place = (292, 42);
type = Stem;
}
);
layerId = m01;
name = Regular;
shapes = (
{
closed = 1;
nodes = (
(343.45,313.11,ls),
(331.18,347.25,o),
(331.02,392.81,o),
(343.04,427.04,cs),
(443.35,712.45,ls),
(444.94,716.98,o),
(449.2,720,o),
(454,720,cs),
(576,720,l),
(449,370,l),
(586,0,l),
(464,0,ls),
(459.2,0,o),
(454.92,3.01,o),
(453.29,7.53,cs)
);
},
{
closed = 1;
nodes = (
(40,0,l),
(177,370,l),
(50,720,l),
(172,720,ls),
(176.8,720,o),
(181,717,o),
(182.65,712.45,cs),
(283,427,ls),
(295,393,o),
(295,347,o),
(283,313,cs),
(172.71,7.53,ls),
(171,3,o),
(166.8,0,o),
(162,0,cs)
);
}
);
width = 626;
}
);
note = X;
unicode = 88;
},
{
glyphname = Y;
kernLeft = Y;
kernRight = V;
lastChange = "2021-05-31 14:57:59 +0000";
layers = (
{
hints = (
{
horizontal = 1;
origin = (0,7);
target = (0,26);
type = Stem;
},
{
origin = (0,3);
target = (0,17);
type = Stem;
}
);
layerId = m01;
shapes = (
{
closed = 1;
nodes = (
(57.89,720,ls),
(52.49,720,o),
(49.38,716.43,o),
(50.11,711.08,cs),
(100.7,340.89,ls),
(105.62,304.96,o),
(133.07,281,o),
(169.34,281,cs),
(361,281,l),
(327,9,ls),
(326,4,o),
(329,0,o),
(335,0,cs),
(438,0,ls),
(443,0,o),
(446,3,o),
(447,8,cs),
(540,711,ls),
(540,716,o),
(537,720,o),
(532,720,cs),
(422,720,ls),
(417,720,o),
(413,717,o),
(413,712,cs),
(374,399,l),
(215.89,399,l),
(176.88,712.06,ls),
(176.29,716.82,o),
(172.69,720,o),
(167.89,720,cs)
);
}
);
width = 590;
}
);
note = Y;
unicode = 89;
},
{
glyphname = Z;
layers = (
{
hints = (
{
horizontal = 1;
place = (480, 122);
place = (480, 122);
type = Stem;
},
{
place = (60, 440);
place = (60, 440);
type = Stem;
}
);
layerId = m01;
shapes = (
{
closed = 1;
nodes = (
(60,118,l),
(320.27,473.55,ls),
(323.11,477.42,o),
(328.2,480,o),
(333,480,cs),
(470,480,l),
(206,118,l),
(492,118,ls),
(496.8,118,o),
(500,114.8,o),
(500,110,cs),
(500,8,ls),
(500,3.2,o),
(496.8,0,o),
(492,0,cs),
(120.45,0,ls),
(84.18,0,o),
(60,24.18,o),
(60,60.45,cs)
);
},
{
closed = 1;
nodes = (
(60,712,ls),
(60,716.8,o),
(63.2,720,o),
(68,720,cs),
(439.55,720,ls),
(475.82,720,o),
(500,695.82,o),
(500,659.55,cs),
(500,610,ls),
(500,605.2,o),
(496.8,602,o),
(492,602,cs),
(68,602,ls),
(63.2,602,o),
(60,605.2,o),
(60,610,cs)
);
}
);
width = 560;
}
);
note = Z;
unicode = 90;
},
{
glyphname = F.calt;
kernRight = F;
lastChange = "2021-05-31 15:18:09 +0000";
layers = (
{
layerId = m01;
shapes = (
{
closed = 1;
nodes = (
(432,720,ls),
(437,720,o),
(440,717,o),
(440,712,cs),
(440,610,ls),
(440,605,o),
(437,602,o),
(432,602,cs),
(88,602,ls),
(83,602,o),
(80,605,o),
(80,610,cs),
(80,712,ls),
(80,717,o),
(83,720,o),
(88,720,cs)
);
},
{
closed = 1;
nodes = (
(0,411,ls),
(0,416,o),
(3,419,o),
(8,419,cs),
(312,419,ls),
(317,419,o),
(320,416,o),
(320,411,cs),
(320,309,ls),
(320,304,o),
(317,301,o),
(312,301,cs),
(120,301,l),
(120,8,ls),
(120,3,o),
(117,0,o),
(112,0,cs),
(8,0,ls),
(3,0,o),
(0,3,o),
(0,8,cs)
);
}
);
width = 500;
}
);
},
{
glyphname = P.calt;
kernRight = P;
lastChange = "2021-05-31 13:28:59 +0000";
layers = (
{
hints = (
{
horizontal = 1;
place = (281, 118);
place = (281, 118);
type = Stem;
},
{
horizontal = 1;
place = (602, 118);
place = (602, 118);
type = Stem;
},
{
place = (-10, 130);
place = (-10, 130);
type = Stem;
},
{
place = (300, 120);
place = (300, 120);
type = Stem;
}
);
layerId = m01;
shapes = (
{
closed = 1;
nodes = (
(-10,8,ls),
(-10,3.2,o),
(-6.8,0.01,o),
(-2.01,0.01,cs),
(111.99,0.01,ls),
(116.78,0.01,o),
(119.98,3.2,o),
(119.98,8,cs),
(119.98,281,l),
(359.98,281,ls),
(395.98,281,o),
(419.98,305,o),
(419.98,341,cs),
(419.98,660,ls),
(419.98,696,o),
(395.98,720,o),
(359.98,720,cs),
(78,720,ls),
(73,720,o),
(70,717,o),
(70,712,cs),
(70,610,ls),
(70,605,o),
(73,602,o),
(78,602,cs),
(299.98,602.02,l),
(299.98,399.02,l),
(-2.02,399.02,ls),
(-6.81,399.02,o),
(-10.01,395.82,o),
(-10.01,391.03,cs)
);
}
);
width = 480;
}
);
note = P.calt;
},
{
glyphname = R.calt;
kernRight = R;
layers = (
{
hints = (
{
horizontal = 1;
place = (301, 118);
place = (301, 118);
type = Stem;
},
{
horizontal = 1;
place = (602, 118);
place = (602, 118);
type = Stem;
},
{
place = (300, 120);
place = (300, 120);
type = Stem;
}
);
layerId = m01;
shapes = (
{
closed = 1;
nodes = (
(-10,411,l),
(-10,301,l),
(94.31,7.54,ls),
(95.92,3.03,o),
(100.18,0.02,o),
(104.98,0.02,cs),
(226.98,0.02,l),
(119.98,301.02,l),
(359.98,301.02,ls),
(395.98,301.02,o),
(419.98,325.02,o),
(419.98,361.02,cs),
(419.98,660.02,ls),
(419.98,696.02,o),
(395.98,720.02,o),
(359.98,720.02,cs),
(77.98,720.02,ls),
(73.18,720.02,o),
(69.99,716.82,o),
(69.99,712.03,cs),
(69.99,610.03,ls),
(69.99,605.23,o),
(73.18,602.04,o),
(77.98,602.04,cs),
(299.98,602.04,l),
(299.98,419.04,l),
(-2.02,419.04,ls),
(-6.81,419.04,o),
(-10.01,415.84,o),
(-10.01,411.05,cs)
);
}
);
width = 490;
}
);
note = R.calt;
},
{
glyphname = T.calt;
kernRight = T;
lastChange = "2021-05-31 15:20:00 +0000";
layers = (
{
layerId = m01;
shapes = (
{
closed = 1;
nodes = (
(60,605,ls),
(60,600,o),
(63,597,o),
(68,597,cs),
(411,597,ls),
(416,597,o),
(420,601,o),
(420,606,cs),
(420,712,ls),
(420,717,o),
(417,720,o),
(412,720,cs),
(69,720,ls),
(64,720,o),
(60,716,o),
(60,711,cs)
);
},
{
closed = 1;
nodes = (
(140,467,ls),
(140,472,o),
(143,475,o),
(148,475,cs),
(252,475,ls),
(257,475,o),
(260,472,o),
(260,467,cs),
(260,9,ls),
(260,4,o),
(256,0,o),
(251,0,cs),
(148,0,ls),
(143,0,o),
(140,3,o),
(140,8,cs)
);
}
);
width = 480;
}
);
},
{
glyphname = C.ss01;
kernRight = C;
layers = (
{
hints = (
{
horizontal = 1;
place = (480, 122);
place = (480, 122);
type = Stem;
},
{
place = (70, 440);
place = (70, 440);
type = Stem;
}
);
layerId = m01;
shapes = (
{
closed = 1;
nodes = (
(70,472,ls),
(70,476.8,o),
(73.2,480,o),
(78,480,cs),
(182,480,ls),
(186.8,480,o),
(190,476.8,o),
(190,472,cs),
(190,118,l),
(502,118,ls),
(506.8,118,o),
(510,114.8,o),
(510,110,cs),
(510,60,ls),
(510,24,o),
(486,0,o),
(450,0,cs),
(129.98,0,ls),
(93.99,0,o),
(70,24,o),
(70,60,cs)
);
},
{
closed = 1;
nodes = (
(70,660.02,ls),
(70,696.02,o),
(93.99,720.02,o),
(129.98,720.02,cs),
(450,720.02,ls),
(486,720.02,o),
(510,696.02,o),
(510,660.02,cs),
(510,610.02,ls),
(510,605.22,o),
(506.8,602.02,o),
(502,602.02,cs),
(77.75,602.02,ls),
(73.1,602.02,o),
(70,605.12,o),
(70,609.77,cs)
);
}
);
width = 570;
}
);
note = C.ss01;
},
{
glyphname = M.ss01;
kernRight = D;
layers = (
{
hints = (
{
horizontal = 1;
place = (480, 122);
place = (480, 122);
type = Stem;
},
{
place = (70, 600);
place = (70, 600);
type = Stem;
}
);
layerId = m01;
shapes = (
{
closed = 1;
nodes = (
(70,472,ls),
(70,476.8,o),
(73.2,480,o),
(78,480,cs),
(182,480,ls),
(186.8,480,o),
(190,476.8,o),
(190,472,cs),
(190,8,ls),
(190,3.2,o),
(186.8,0,o),
(182,0,cs),
(78,0,ls),
(73.2,0,o),
(70,3.2,o),
(70,8,cs)
);
},
{
closed = 1;
nodes = (
(70,712,ls),
(70,716.8,o),
(73.2,720,o),
(78,720,cs),
(609.55,720,ls),
(645.82,720,o),
(670,695.82,o),
(670,659.55,cs),
(670,8,ls),
(670,3.2,o),
(666.8,0,o),
(662,0,cs),
(558,0,ls),
(553.2,0,o),
(550,3.2,o),
(550,8,cs),
(550,602,l),
(78,602,ls),
(73.2,602,o),
(70,605.2,o),
(70,610,cs)
);
}
);
width = 740;
}
);
note = M.ss01;
},
{
glyphname = N.ss01;
kernRight = D;
layers = (
{
hints = (
{
horizontal = 1;
place = (480, 122);
place = (480, 122);
type = Stem;
},
{
place = (190, 240);
place = (190, 240);
type = Stem;
}
);
layerId = m01;
shapes = (
{
closed = 1;
nodes = (
(70,472,ls),
(70,476.8,o),
(73.2,480,o),
(78,480,cs),
(182,480,ls),
(186.8,480,o),
(190,476.8,o),
(190,472,cs),
(190,8,ls),
(190,3.2,o),
(186.8,0,o),
(182,0,cs),
(80,0,ls),
(74,0,o),
(70,4,o),
(70,10,cs)
);
},
{
closed = 1;
nodes = (
(70,712,ls),
(70,716.8,o),
(73.2,720,o),
(78,720,cs),
(489.55,720,ls),
(525.82,720,o),
(550,695.82,o),
(550,659.55,cs),
(550,8,ls),
(550,3.2,o),
(546.8,0,o),
(542,0,cs),
(438,0,ls),
(433.2,0,o),
(430,3.2,o),
(430,8,cs),
(430,602,l),
(79.93,602,ls),
(73.97,602,o),
(70,605.97,o),
(70,611.93,cs)
);
}
);
width = 620;
}
);
note = N.ss01;
},
{
glyphname = M.ss02;
kernLeft = A;
layers = (
{
hints = (
{
horizontal = 1;
place = (542, 118);
place = (542, 118);
type = Stem;
},
{
place = (70, 120);
place = (70, 120);
type = Stem;
},
{
place = (550, 120);
place = (550, 120);
type = Stem;
},
{
horizontal = 1;
place = (602, 2000);
place = (602, 2000);
type = Stem;
}
);
layerId = m01;
shapes = (
{
closed = 1;
nodes = (
(69.99,659.56,l),
(69.99,8,ls),
(69.99,3.2,o),
(73.19,0,o),
(77.99,0,cs),
(181.99,0,ls),
(186.79,0,o),
(189.99,3.2,o),
(189.99,8,cs),
(189.99,602,l),
(275.99,602,l),
(397.99,542,l),
(549.99,542,l),
(549.99,8,ls),
(549.99,3.2,o),
(553.19,0,o),
(557.99,0,cs),
(661.99,0,ls),
(666.79,0,o),
(669.99,3.2,o),
(669.99,8,cs),
(669.99,599.55,ls),
(669.99,635.82,o),
(645.81,660,o),
(609.54,660,cs),
(422.99,660,l),
(293.99,720,l),
(130.43,720,ls),
(94.16,720,o),
(69.98,695.82,o),
(69.98,659.55,cs)
);
}
);
width = 740;
}
);
note = M.ss02;
},
{
glyphname = A_J.calt;
kernLeft = A;
lastChange = "2021-05-31 11:01:16 +0000";
layers = (
{
hints = (
{
horizontal = 1;
place = (0, 720);
place = (0, 720);
type = Stem;
},
{
place = (50, 464);
place = (50, 464);
type = Stem;
}
);
layerId = m01;
shapes = (
{
closed = 1;
nodes = (
(452.63,660.18,l),
(513.51,246.9,ls),
(514.29,241.56,o),
(511.21,238.01,o),
(505.82,238.01,cs),
(400.82,238.01,ls),
(396.02,238.01,o),
(392.44,241.18,o),
(391.87,245.93,cs),
(348.84,599.99,l),
(248.84,599.99,l),
(176.81,7.93,ls),
(176.24,3.18,o),
(172.66,0.01,o),
(167.86,0.01,cs),
(57.86,0.01,ls),
(52.47,0.01,o),
(49.39,3.56,o),
(50.15,8.9,cs),
(144.22,660.16,ls),
(149.39,696.05,o),
(177.03,719.98,o),
(213.29,719.98,cs),
(383.39,719.98,ls),
(419.65,719.98,o),
(447.34,696.06,o),
(452.62,660.17,cs)
);
}
);
width = 413;
}
);
note = A_J.calt;
},
{
glyphname = F_B.calt;
kernRight = B;
lastChange = "2021-05-31 13:30:12 +0000";
layers = (
{
layerId = m01;
shapes = (
{
closed = 1;
nodes = (
(70,712,ls),
(70,717,o),
(73,720,o),
(78,720,cs),
(250,720,ls),
(286,720,o),
(310,696,o),
(310,660,cs),
(310,439,l),
(410,439,ls),
(446,439,o),
(470,415,o),
(470,379,cs),
(470,60,ls),
(470,24,o),
(446,0,o),
(410,0,cs),
(-2,0,ls),
(-7,0,o),
(-10,3,o),
(-10,8,cs),
(-10,110,ls),
(-10,115,o),
(-7,118,o),
(-2,118,cs),
(350,118,l),
(350,321,l),
(198,321,ls),
(193,321,o),
(190,324,o),
(190,329,cs),
(190,602,l),
(78,602,ls),
(73,602,o),
(70,605,o),
(70,610,cs)
);
}
);
width = 540;
}
);
},
{
glyphname = L_A.calt;
kernRight = A;
lastChange = "2021-05-31 11:00:47 +0000";
layers = (
{
hints = (
{
horizontal = 1;
place = (600, 120);
place = (600, 120);
type = Stem;
},
{
place = (-100, 464);
place = (-100, 464);
type = Stem;
}
);
layerId = m01;
shapes = (
{
closed = 1;
nodes = (
(-39,660.18,l),
(-99.87,246.9,ls),
(-100.65,241.56,o),
(-97.58,238.01,o),
(-92.18,238.01,cs),
(12.81,238.01,ls),
(17.61,238.01,o),
(21.19,241.18,o),
(21.76,245.93,cs),
(64.79,599.99,l),
(164.79,599.99,l),
(236.82,7.93,ls),
(237.39,3.18,o),
(240.97,0.01,o),
(245.77,0.01,cs),
(355.77,0.01,ls),
(361.16,0.01,o),
(364.24,3.56,o),
(363.47,8.9,cs),
(269.4,660.16,ls),
(264.23,696.05,o),
(236.59,719.98,o),
(200.33,719.98,cs),
(30.23,719.98,ls),
(-6.03,719.98,o),
(-33.72,696.06,o),
(-39.01,660.17,cs)
);
}
);
width = 413;
}
);
note = L_A.calt;
},
{
glyphname = L_B.calt;
kernRight = B;
lastChange = "2021-05-31 13:25:32 +0000";
layers = (
{
hints = (
{
horizontal = 1;
place = (118, 203);
place = (118, 203);
type = Stem;
},
{
horizontal = 1;
place = (439, 163);
place = (439, 163);
type = Stem;
},
{
place = (230, 40);
place = (230, 40);
type = Stem;
}
);
layerId = m01;
shapes = (
{
closed = 1;
nodes = (
(-90,610,l),
(-90,712,ls),
(-90,716.79,o),
(-86.8,719.99,o),
(-82.01,719.99,cs),
(169.99,719.99,ls),
(205.99,719.99,o),
(229.98,696,o),
(229.98,660,cs),
(229.98,439,l),
(329.98,439,ls),
(365.98,439,o),
(389.97,415.01,o),
(389.97,379.01,cs),
(389.97,60,ls),
(389.97,24.02,o),
(365.98,0.02,o),
(329.98,0.02,cs),
(67.98,0.02,ls),
(63.18,0.02,o),
(59.99,3.21,o),
(59.99,8.01,cs),
(59.99,110.01,ls),
(59.99,114.8,o),
(63.18,118,o),
(67.98,118,cs),
(269.98,118,l),
(269.98,321,l),
(117.98,321,ls),
(113.18,321,o),
(109.99,324.19,o),
(109.99,328.99,cs),
(109.99,601.99,l),
(-82.01,601.99,ls),
(-86.8,601.99,o),
(-90,605.18,o),
(-90,609.98,cs)
);
}
);
width = 460;
}
);
note = B.calt;
},
{
glyphname = zero;
kernRight = D;
lastChange = "2021-05-31 14:36:03 +0000";
layers = (
{
hints = (
{
horizontal = 1;
origin = (0,4);
target = (0,11);
type = Stem;
},
{
origin = (0,0);
target = (0,23);
type = Stem;
},
{
origin = (0,26);
target = (0,23);
type = Stem;
}
);
layerId = m01;
shapes = (
{
closed = 1;
nodes = (
(280,8,ls),
(280,3.2,o),
(276.8,0,o),
(272,0,cs),
(130.45,0,ls),
(94.18,0,o),
(70,24.18,o),
(70,60.45,cs),
(70,659.55,ls),
(70,695.82,o),
(94.18,720,o),
(130.45,720,cs),
(459.55,720,ls),
(495.82,720,o),
(520,695.82,o),
(520,659.55,cs),
(520,60.45,ls),
(520,24.18,o),
(495.82,0,o),
(459.55,0,cs),
(413,0,ls),
(408,0,o),
(405,3,o),
(405,8,cs),
(405,607,l),
(185,607,l),
(185,113,l),
(272,113,ls),
(277,113,o),
(280,110,o),
(280,105,cs)
);
}
);
width = 590;
},
{
associatedMasterId = m01;
hints = (
{
horizontal = 1;
place = (0, 720);
place = (0, 720);
type = Stem;
},
{
place = (280, 120);
place = (280, 120);
type = Stem;
},
{
place = (190, 210);
place = (190, 210);
type = Stem;
}
);
layerId = "D4D64DB2-8E39-4D4C-9DFA-1DD2368B291D";
name = "31. Mai 21, 16:16";
shapes = (
{
closed = 1;
nodes = (
(280,8,ls),
(280,3.2,o),
(276.8,0,o),
(272,0,cs),
(130.45,0,ls),
(94.18,0,o),
(70,24.18,o),
(70,60.45,cs),
(70,659.55,ls),
(70,695.82,o),
(94.18,720,o),
(130.45,720,cs),
(459.55,720,ls),
(495.82,720,o),
(520,695.82,o),
(520,659.55,cs),
(520,60.45,ls),
(520,24.18,o),
(495.82,0,o),
(459.55,0,cs),
(408,0,ls),
(403.2,0,o),
(400,3.2,o),
(400,8,cs),
(400,602,l),
(190,602,l),
(190,118,l),
(272,118,ls),
(276.8,118,o),
(280,114.8,o),
(280,110,cs)
);
}
);
width = 590;
}
);
note = zero;
unicode = 48;
},
{
glyphname = one;
kernLeft = one;
kernRight = D;
lastChange = "2021-05-31 11:12:35 +0000";
layers = (
{
hints = (
{
horizontal = 1;
place = (0, 720);
place = (0, 720);
type = Stem;
},
{
place = (60, 240);
place = (60, 240);
type = Stem;
}
);
layerId = m01;
shapes = (
{
closed = 1;
nodes = (
(239.55,720,ls),
(275.82,720,o),
(300,695.82,o),
(300,659.55,cs),
(300,8,ls),
(300,3.2,o),
(296.8,0,o),
(292,0,cs),
(188,0,ls),
(183.2,0,o),
(180,3.2,o),
(180,8,cs),
(180,602,l),
(68,602,ls),
(63.2,602,o),
(60,605.2,o),
(60,610,cs),
(60,712,ls),
(60,716.8,o),
(63.2,720,o),
(68,720,cs)
);
}
);
width = 370;
}
);
note = one;
unicode = 49;
},
{
glyphname = two;
layers = (
{
hints = (
{
horizontal = 1;
place = (0, 118);
place = (0, 118);
type = Stem;
},
{
horizontal = 1;
place = (602, 118);
place = (602, 118);
type = Stem;
},
{
place = (60, 120);
place = (60, 120);
type = Stem;
},
{
place = (360, 120);
place = (360, 120);
type = Stem;
}
);
layerId = m01;
shapes = (
{
closed = 1;
nodes = (
(492,0,ls),
(496.8,0,o),
(500,3.2,o),
(500,8,cs),
(500,110,ls),
(500,114.8,o),
(496.8,118,o),
(492,118,cs),
(180,118,l),
(180,332,ls),
(180,336.8,o),
(176.8,340,o),
(172,340,cs),
(120.45,340,ls),
(84.18,340,o),
(60,315.82,o),
(60,279.55,cs),
(60,60.45,ls),
(60,24.18,o),
(84.18,0,o),
(120.45,0,cs)
);
},
{
closed = 1;
nodes = (
(70,610,ls),
(70,605.2,o),
(73.2,602,o),
(78,602,cs),
(360,602,l),
(360,348,ls),
(360,343.2,o),
(363.2,340,o),
(368,340,cs),
(419.55,340,ls),
(455.82,340,o),
(480,364.18,o),
(480,400.45,cs),
(480,659.55,ls),
(480,695.82,o),
(455.82,720,o),
(419.55,720,cs),
(78,720,ls),
(73.2,720,o),
(70,716.8,o),
(70,712,cs)
);
}
);
width = 550;
}
);
note = two;
unicode = 50;
},
{
glyphname = three;
kernRight = D;
layers = (
{
hints = (
{
horizontal = 1;
place = (0, 118);
place = (0, 118);
type = Stem;
},
{
horizontal = 1;
place = (281, 118);
place = (281, 118);
type = Stem;
},
{
horizontal = 1;
place = (602, 118);
place = (602, 118);
type = Stem;
},
{
place = (360, 120);
place = (360, 120);
type = Stem;
}
);
layerId = m01;
shapes = (
{
closed = 1;
nodes = (
(480,110,ls),
(480,114.8,o),
(476.8,118,o),
(472,118,cs),
(68,118,ls),
(63.2,118,o),
(60,114.8,o),
(60,110,cs),
(60,8,ls),
(60,3.2,o),
(63.2,0,o),
(68,0,cs),
(419.55,0,ls),
(455.82,0,o),
(480,24.18,o),
(480,60.45,cs)
);
},
{
closed = 1;
nodes = (
(60,610,ls),
(60,605.2,o),
(63.2,602,o),
(68,602,cs),
(360,602,l),
(360,399,l),
(188,399,ls),
(183.2,399,o),
(180,395.8,o),
(180,391,cs),
(180,289,ls),
(180,284.2,o),
(183.2,281,o),
(188,281,cs),
(472,281,ls),
(476.8,281,o),
(480,284.2,o),
(480,289,cs),
(480,659.55,ls),
(480,695.82,o),
(455.82,720,o),
(419.55,720,cs),
(68,720,ls),
(63.2,720,o),
(60,716.8,o),
(60,712,cs)
);
}
);
width = 550;
}
);
note = three;
unicode = 51;
},
{
glyphname = four;
kernLeft = nine;
lastChange = "2021-05-31 11:18:15 +0000";
layers = (
{
hints = (
{
horizontal = 1;
place = (282, 116);
place = (282, 116);
type = Stem;
},
{
place = (70, 120);
place = (70, 120);
type = Stem;
},
{
place = (360, 120);
place = (360, 120);
type = Stem;
}
);
layerId = m01;
shapes = (
{
closed = 1;
nodes = (
(120,282,ls),
(84,282,o),
(60,306,o),
(60,342,cs),
(60,660,ls),
(60,696,o),
(84,720,o),
(120,720,cs),
(180,720,l),
(180,398,l),
(470,398,l),
(470,0,l),
(350,0,l),
(350,282,l)
);
}
);
width = 540;
}
);
note = four;
unicode = 52;
},
{
glyphname = five;
layers = (
{
hints = (
{
horizontal = 1;
place = (118, 183);
place = (118, 183);
type = Stem;
},
{
horizontal = 1;
place = (420, 182);
place = (420, 182);
type = Stem;
},
{
place = (60, 420);
place = (60, 420);
type = Stem;
}
);
layerId = m01;
shapes = (
{
closed = 1;
nodes = (
(78,602,ls),
(73.2,602,o),
(70,605.2,o),
(70,610,cs),
(70,659.55,ls),
(70,695.82,o),
(94.18,720,o),
(130.45,720,cs),
(462,720,ls),
(466.8,720,o),
(470,716.8,o),
(470,712,cs),
(470,610,ls),
(470,605.2,o),
(466.8,602,o),
(462,602,cs)
);
},
{
closed = 1;
nodes = (
(60,110,ls),
(60,114.8,o),
(63.2,118,o),
(68,118,cs),
(360,118,l),
(360,301,l),
(132,301,ls),
(96,301,o),
(72,325,o),
(72,361,cs),
(72,412,ls),
(72,416.8,o),
(75.2,420,o),
(80,420,cs),
(420,420,ls),
(456,420,o),
(480,396,o),
(480,360,cs),
(480,60,ls),
(480,24,o),
(456,0,o),
(420,0,cs),
(68,0,ls),
(63.2,0,o),
(60,3.2,o),
(60,8,cs)
);
}
);
width = 550;
}
);
note = five;
unicode = 53;
},
{
glyphname = six;
kernLeft = six;
lastChange = "2021-05-31 09:00:35 +0000";
layers = (
{
hints = (
{
horizontal = 1;
place = (118, 183);
place = (118, 183);
type = Stem;
},
{
place = (60, 420);
place = (60, 420);
type = Stem;
}
);
layerId = m01;
shapes = (
{
closed = 1;
nodes = (
(60,419,l),
(164.32,712.46,ls),
(165.93,716.99,o),
(170.2,719.99,o),
(175,719.99,cs),
(297,719.99,l),
(190,418.99,l),
(420,418.99,ls),
(456,418.99,o),
(480,394.99,o),
(480,358.99,cs),
(480,59.99,ls),
(480,23.99,o),
(456,-0.01,o),
(420,-0.01,cs),
(120,-0.01,ls),
(84,-0.01,o),
(60,23.99,o),
(60,59.99,cs),
(60,109.99,ls),
(60,114.79,o),
(63.2,117.99,o),
(68,117.99,cs),
(360,117.99,l),
(360,300.99,l),
(68,300.99,ls),
(63.2,300.99,o),
(60,304.19,o),
(60,308.99,cs)
);
}
);
width = 550;
}
);
note = six;
unicode = 54;
},
{
glyphname = seven;
kernLeft = seven;
kernRight = seven;
lastChange = "2021-05-31 08:59:59 +0000";
layers = (
{
hints = (
{
horizontal = 1;
place = (602, 118);
place = (602, 118);
type = Stem;
},
{
place = (340, 120);
place = (340, 120);
type = Stem;
}
);
layerId = m01;
shapes = (
{
closed = 1;
nodes = (
(175,0,l),
(302,0,ls),
(306.8,0,o),
(311.07,3.02,o),
(312.67,7.54,cs),
(480,480,l),
(360,480,ls),
(355.2,480,o),
(350.89,477,o),
(349.23,472.5,cs)
);
},
{
closed = 1;
nodes = (
(60,608,ls),
(60,603.2,o),
(63.2,600,o),
(68,600,cs),
(492,600,ls),
(496.8,600,o),
(500,603.2,o),
(500,608,cs),
(500,659.55,ls),
(500,695.82,o),
(475.82,720,o),
(439.55,720,cs),
(68,720,ls),
(63.2,720,o),
(60,716.8,o),
(60,712,cs)
);
}
);
width = 560;
}
);
note = seven;
unicode = 55;
},
{
glyphname = eight;
lastChange = "2021-05-31 14:19:35 +0000";
layers = (
{
hints = (
{
horizontal = 1;
place = (0, 118);
place = (0, 118);
type = Stem;
},
{
horizontal = 1;
place = (602, 118);
place = (602, 118);
type = Stem;
},
{
place = (70, 120);
place = (70, 120);
type = Stem;
},
{
place = (410, 120);
place = (410, 120);
type = Stem;
}
);
layerId = m01;
name = Regular;
shapes = (
{
closed = 1;
nodes = (
(460,419,ls),
(496,419,o),
(520,443,o),
(520,479,cs),
(520,660,ls),
(520,696,o),
(496,720,o),
(460,720,cs),
(130,720,ls),
(94,720,o),
(70,696,o),
(70,660,cs),
(70,479,ls),
(70,443,o),
(94,419,o),
(130,419,cs),
(177,419,ls),
(182,419,o),
(185,422,o),
(185,427,cs),
(185,607,l),
(405,607,l),
(405,427,ls),
(405,422,o),
(408,419,o),
(413,419,cs)
);
},
{
closed = 1;
nodes = (
(70,60,ls),
(70,24,o),
(94,0,o),
(130,0,cs),
(460,0,ls),
(496,0,o),
(520,24,o),
(520,60,cs),
(520,239,ls),
(520,275,o),
(496,299,o),
(460,299,cs),
(413,299,ls),
(408,299,o),
(405,296,o),
(405,291,cs),
(405,113,l),
(185,113,l),
(185,291,ls),
(185,296,o),
(182,299,o),
(177,299,cs),
(130,299,ls),
(94,299,o),
(70,275,o),
(70,239,cs)
);
}
);
width = 590;
}
);
note = eight;
unicode = 56;
},
{
glyphname = nine;
kernLeft = nine;
kernRight = D;
layers = (
{
hints = (
{
horizontal = 1;
place = (420, 180);
place = (420, 180);
type = Stem;
},
{
place = (180, 200);
place = (180, 200);
type = Stem;
}
);
layerId = m01;
shapes = (
{
closed = 1;
nodes = (
(380,300,l),
(120,300,ls),
(84,300,o),
(60,324,o),
(60,360,cs),
(60,660,ls),
(60,696,o),
(84,720,o),
(120,720,cs),
(440,720,ls),
(476,720,o),
(500,696,o),
(500,660,cs),
(500,608,ls),
(500,603.2,o),
(496.8,600,o),
(492,600,cs),
(180,600,l),
(180,420,l),
(492,420,ls),
(496.8,420,o),
(500,416.8,o),
(500,412,cs),
(500,8,ls),
(500,3.2,o),
(496.8,0,o),
(492,0,cs),
(388,0,ls),
(383.2,0,o),
(380,3.2,o),
(380,8,cs)
);
}
);
width = 570;
}
);
note = nine;
unicode = 57;
},
{
glyphname = period;
kernLeft = period;
kernRight = period;
lastChange = "2021-05-31 11:14:36 +0000";
layers = (
{
hints = (
{
horizontal = 1;
place = (0, 120);
place = (0, 120);
type = Stem;
},
{
place = (100, 120);
place = (100, 120);
type = Stem;
}
);
layerId = m01;
shapes = (
{
closed = 1;
nodes = (
(182,120,ls),
(187,120,o),
(190,117,o),
(190,112,cs),
(190,8,ls),
(190,3,o),
(187,0,o),
(182,0,cs),
(78,0,ls),
(73,0,o),
(70,3,o),
(70,8,cs),
(70,112,ls),
(70,117,o),
(73,120,o),
(78,120,cs)
);
}
);
width = 260;
}
);
note = period;
unicode = 46;
},
{
glyphname = comma;
kernLeft = period;
kernRight = period;
lastChange = "2021-05-31 11:10:36 +0000";
layers = (
{
hints = (
{
horizontal = 1;
place = (-125, 250);
place = (-125, 250);
type = Stem;
},
{
place = (70, 136);
place = (70, 136);
type = Stem;
}
);
layerId = m01;
shapes = (
{
closed = 1;
nodes = (
(199.59,113.38,ls),
(204.36,112.79,o),
(207.14,109.23,o),
(206.56,104.46,cs),
(179.26,-117.87,ls),
(178.68,-122.63,o),
(175.11,-125.42,o),
(170.35,-124.83,cs),
(77.05,-113.38,ls),
(72.28,-112.79,o),
(69.5,-109.23,o),
(70.08,-104.46,cs),
(97.38,117.87,ls),
(97.97,122.63,o),
(101.53,125.42,o),
(106.3,124.83,cs)
);
}
);
width = 277;
}
);
note = comma;
unicode = 44;
},
{
glyphname = colon;
kernLeft = colon;
kernRight = colon;
lastChange = "2021-05-31 11:35:31 +0000";
layers = (
{
hints = (
{
horizontal = 1;
place = (118, 183);
place = (118, 183);
type = Stem;
},
{
place = (100, 120);
place = (100, 120);
type = Stem;
}
);
layerId = m01;
shapes = (
{
closed = 1;
nodes = (
(182,419,ls),
(187,419,o),
(190,416,o),
(190,411,cs),
(190,309,ls),
(190,304,o),
(187,301,o),
(182,301,cs),
(78,301,ls),
(73,301,o),
(70,304,o),
(70,309,cs),
(70,411,ls),
(70,416,o),
(73,419,o),
(78,419,cs)
);
},
{
closed = 1;
nodes = (
(70,110,ls),
(70,115,o),
(73,118,o),
(78,118,cs),
(182,118,ls),
(187,118,o),
(190,115,o),
(190,110,cs),
(190,8,ls),
(190,3,o),
(187,0,o),
(182,0,cs),
(78,0,ls),
(73,0,o),
(70,3,o),
(70,8,cs)
);
}
);
width = 260;
}
);
note = colon;
unicode = 58;
},
{
glyphname = exclam;
lastChange = "2021-05-31 11:15:05 +0000";
layers = (
{
hints = (
{
horizontal = 1;
place = (120, 120);
place = (120, 120);
type = Stem;
},
{
place = (100, 120);
place = (100, 120);
type = Stem;
}
);
layerId = m01;
shapes = (
{
closed = 1;
nodes = (
(182,719,ls),
(187,719,o),
(190,716,o),
(190,711,cs),
(190,248,ls),
(190,243,o),
(187,240,o),
(182,240,cs),
(78,240,ls),
(73,240,o),
(70,243,o),
(70,248,cs),
(70,711,ls),
(70,716,o),
(73,719,o),
(78,719,cs)
);
},
{
closed = 1;
nodes = (
(70,112,ls),
(70,117,o),
(73,120,o),
(78,120,cs),
(182,120,ls),
(187,120,o),
(190,117,o),
(190,112,cs),
(190,8,ls),
(190,3,o),
(187,0,o),
(182,0,cs),
(78,0,ls),
(73,0,o),
(70,3,o),
(70,8,cs)
);
}
);
width = 260;
}
);
note = exclam;
unicode = 33;
},
{
glyphname = slash;
kernLeft = slash;
kernRight = slash;
lastChange = "2021-05-31 08:56:29 +0000";
layers = (
{
hints = (
{
horizontal = 1;
place = (-92, 875);
place = (-92, 875);
type = Stem;
},
{
place = (70, 213);
place = (70, 213);
type = Stem;
}
);
layerId = m01;
shapes = (
{
closed = 1;
nodes = (
(276.37,771.03,ls),
(281.14,770.44,o),
(283.92,766.88,o),
(283.34,762.11,cs),
(179.26,-85.52,ls),
(178.68,-90.29,o),
(175.11,-93.07,o),
(170.35,-92.49,cs),
(77.05,-81.03,ls),
(72.28,-80.44,o),
(69.5,-76.88,o),
(70.08,-72.11,cs),
(174.16,775.52,ls),
(174.74,780.29,o),
(178.31,783.07,o),
(183.07,782.49,cs)
);
}
);
width = 353;
}
);
note = slash;
unicode = 47;
},
{
glyphname = backslash;
kernRight = backslash;
lastChange = "2021-05-31 11:04:09 +0000";
layers = (
{
hints = (
{
horizontal = 1;
place = (-92, 875);
place = (-92, 875);
type = Stem;
},
{
place = (70, 213);
place = (70, 213);
type = Stem;
}
);
layerId = m01;
shapes = (
{
closed = 1;
nodes = (
(170.35,782.49,ls),
(175.11,783.07,o),
(178.68,780.29,o),
(179.26,775.52,cs),
(283.34,-72.11,ls),
(283.92,-76.88,o),
(281.14,-80.44,o),
(276.37,-81.03,cs),
(183.07,-92.49,ls),
(178.31,-93.07,o),
(174.74,-90.29,o),
(174.16,-85.52,cs),
(70.08,762.11,ls),
(69.5,766.88,o),
(72.28,770.44,o),
(77.05,771.03,cs)
);
}
);
width = 353;
}
);
note = backslash;
unicode = 92;
},
{
glyphname = hyphen;
kernLeft = hyphen;
kernRight = hyphen;
lastChange = "2021-05-31 11:15:47 +0000";
layers = (
{
hints = (
{
horizontal = 1;
place = (281, 118);
place = (281, 118);
type = Stem;
},
{
place = (50, 240);
place = (50, 240);
type = Stem;
}
);
layerId = m01;
shapes = (
{
closed = 1;
nodes = (
(60,391,ls),
(60,396,o),
(63,399,o),
(68,399,cs),
(292,399,ls),
(297,399,o),
(300,396,o),
(300,391,cs),
(300,289,ls),
(300,284,o),
(297,281,o),
(292,281,cs),
(68,281,ls),
(63,281,o),
(60,284,o),
(60,289,cs)
);
}
);
width = 360;
}
);
note = hyphen;
unicode = 45;
},
